<svg width="24" height="24" viewBox="0 0 24 24" fill="none" xmlns="http://www.w3.org/2000/svg">
<g clip-path="url(#clip0_398_7920)">
<path d="M1.51045 6.07922C1.70743 6.07896 1.90251 6.1177 2.08445 6.19322C2.26638 6.26874 2.43156 6.37954 2.57045 6.51922L10.2434 14.1912C10.4756 14.4234 10.7512 14.6076 11.0546 14.7333C11.3579 14.859 11.6831 14.9237 12.0114 14.9237C12.3398 14.9237 12.665 14.859 12.9683 14.7333C13.2717 14.6076 13.5473 14.4234 13.7794 14.1912L21.4404 6.52922C21.5788 6.38596 21.7443 6.27168 21.9273 6.19307C22.1103 6.11446 22.3072 6.07308 22.5063 6.07135C22.7055 6.06961 22.903 6.10757 23.0874 6.18299C23.2717 6.25841 23.4392 6.36979 23.58 6.51063C23.7209 6.65147 23.8323 6.81894 23.9077 7.00329C23.9831 7.18763 24.0211 7.38515 24.0193 7.58432C24.0176 7.78349 23.9762 7.98032 23.8976 8.16333C23.819 8.34633 23.7047 8.51185 23.5614 8.65022L15.9004 16.3122C14.8684 17.3424 13.4697 17.921 12.0114 17.921C10.5532 17.921 9.15454 17.3424 8.12245 16.3122L0.449446 8.64022C0.23953 8.43044 0.0965597 8.1631 0.0386256 7.87204C-0.0193085 7.58098 0.0103976 7.27928 0.123985 7.0051C0.237573 6.73093 0.429936 6.49661 0.676735 6.3318C0.923534 6.16699 1.21368 6.07909 1.51045 6.07922Z" fill="#374957"/>
</g>
<defs>
<clipPath id="clip0_398_7920">
<rect width="24" height="24" fill="white"/>
</clipPath>
</defs>
</svg>
