<svg width="24" height="24" viewBox="0 0 24 24" fill="none" xmlns="http://www.w3.org/2000/svg">
<g clip-path="url(#clip0_398_7913)">
<path d="M8.52423e-06 20.9999H24V23.9999H8.52423e-06V20.9999ZM24 8.09988V9.99988H21V15.9999H23V18.9999H1.00001V15.9999H3.00001V9.99988H8.52423e-06V8.09988C-0.00136393 7.48616 0.163017 6.88346 0.475793 6.35542C0.788569 5.82738 1.23813 5.3936 1.77701 5.09988L10.367 0.415881C10.8676 0.141741 11.4292 -0.00195313 12 -0.00195312C12.5708 -0.00195313 13.1324 0.141741 13.633 0.415881L22.224 5.09988C22.7626 5.39381 23.2119 5.82767 23.5245 6.35568C23.8371 6.88369 24.0014 7.48628 24 8.09988ZM4.56201 6.99988H19.437L12.2 3.04988C12.1404 3.0166 12.0733 2.99913 12.005 2.99913C11.9367 2.99913 11.8696 3.0166 11.81 3.04988L4.56201 6.99988ZM11 9.99988V15.9999H13V9.99988H11ZM6.00001 15.9999H8.00001V9.99988H6.00001V15.9999ZM18 9.99988H16V15.9999H18V9.99988Z" fill="#374957"/>
</g>
<defs>
<clipPath id="clip0_398_7913">
<rect width="24" height="24" fill="white"/>
</clipPath>
</defs>
</svg>
