<svg width="24" height="24" viewBox="0 0 24 24" fill="none" xmlns="http://www.w3.org/2000/svg">
<g clip-path="url(#clip0_398_7893)">
<path d="M14.12 1.62653C13.4886 1.21759 12.7523 1 12 1C11.2477 1 10.5114 1.21759 9.88 1.62653L0 7.99953L5 11.2245V20.0185L5.32 20.4265C5.527 20.6895 7.473 22.9995 12 22.9995C16.527 22.9995 18.473 20.6895 18.68 20.4265L19 20.0185V11.2245L21 9.93453V19.9995H24V7.99953L14.12 1.62653ZM11.506 4.14753C11.6527 4.05117 11.8245 3.99984 12 3.99984C12.1755 3.99984 12.3473 4.05117 12.494 4.14753L18.465 7.99953L12.494 11.8505C12.3476 11.9478 12.1757 11.9996 12 11.9996C11.8243 11.9996 11.6524 11.9478 11.506 11.8505L5.535 7.99953L11.506 4.14753ZM16 18.8575C14.8308 19.6724 13.4232 20.0743 12 19.9995C10.5772 20.0742 9.17004 19.6735 8 18.8605V13.1605L9.88 14.3735C10.5114 14.7825 11.2477 15.0001 12 15.0001C12.7523 15.0001 13.4886 14.7825 14.12 14.3735L16 13.1595V18.8575Z" fill="#374957"/>
</g>
<defs>
<clipPath id="clip0_398_7893">
<rect width="24" height="24" fill="white"/>
</clipPath>
</defs>
</svg>
