<svg width="24" height="24" viewBox="0 0 24 24" fill="none" xmlns="http://www.w3.org/2000/svg">
<g clip-path="url(#clip0_398_7891)">
<path d="M6.85238 23.4369C6.08918 23.4335 5.34667 23.1885 4.73138 22.7369C4.10259 22.2946 3.63339 21.6611 3.39358 20.9307C3.15376 20.2002 3.15615 19.4119 3.40038 18.6829L4.57038 15.0639L1.49038 12.8119C0.872823 12.3607 0.413799 11.7258 0.178982 10.9979C-0.0558344 10.27 -0.0544104 9.48648 0.18305 8.75945C0.420511 8.03243 0.88184 7.39913 1.50103 6.95018C2.12023 6.50123 2.86555 6.25962 3.63038 6.25993H7.40038L8.54538 2.68993C8.78037 1.95887 9.24133 1.32125 9.86186 0.868913C10.4824 0.416572 11.2305 0.172852 11.9984 0.172852C12.7663 0.172852 13.5144 0.416572 14.1349 0.868913C14.7554 1.32125 15.2164 1.95887 15.4514 2.68993L16.6004 6.25993H20.3704C21.1351 6.25983 21.8803 6.50159 22.4993 6.95062C23.1184 7.39965 23.5795 8.03295 23.8169 8.75993C24.0542 9.48691 24.0555 10.2703 23.8207 10.9981C23.5859 11.7259 23.1269 12.3608 22.5094 12.8119L19.4304 15.0639L20.6004 18.6829C20.8363 19.4129 20.8345 20.199 20.5954 20.9279C20.3564 21.6569 19.8922 22.2913 19.2698 22.7397C18.6473 23.1882 17.8987 23.4277 17.1315 23.4238C16.3644 23.4199 15.6182 23.1728 15.0004 22.7179L12.0004 20.5119L9.00038 22.7189C8.37964 23.1819 7.62676 23.4336 6.85238 23.4369ZM3.63038 9.25993C3.49839 9.25992 3.36976 9.30163 3.2629 9.3791C3.15603 9.45657 3.07638 9.56584 3.03534 9.69129C2.9943 9.81674 2.99397 9.95196 3.03438 10.0776C3.0748 10.2033 3.1539 10.3129 3.26038 10.3909L7.21638 13.2819C7.47111 13.4682 7.66062 13.73 7.75793 14.0302C7.85524 14.3304 7.8554 14.6537 7.75838 14.9539L6.25838 19.6039C6.21676 19.7301 6.21633 19.8662 6.25716 19.9926C6.298 20.1189 6.37797 20.2291 6.48553 20.307C6.59308 20.3849 6.72263 20.4267 6.85546 20.4261C6.98828 20.4255 7.11748 20.3828 7.22438 20.3039L11.1134 17.4429C11.371 17.2534 11.6825 17.1511 12.0024 17.1511C12.3222 17.1511 12.6337 17.2534 12.8914 17.4429L16.7804 20.3029C16.8871 20.3825 17.0165 20.4259 17.1497 20.4268C17.2828 20.4277 17.4128 20.386 17.5206 20.3079C17.6284 20.2298 17.7085 20.1192 17.7491 19.9924C17.7897 19.8656 17.7887 19.7292 17.7464 19.6029L16.2464 14.9529C16.1494 14.6527 16.1495 14.3294 16.2468 14.0292C16.3441 13.729 16.5336 13.4672 16.7884 13.2809L20.7434 10.3899C20.8498 10.312 20.9289 10.2024 20.9693 10.0768C21.0097 9.95129 21.0095 9.81617 20.9686 9.69077C20.9277 9.56536 20.8482 9.45609 20.7415 9.37854C20.6348 9.30099 20.5063 9.25913 20.3744 9.25893H15.5004C15.1827 9.25885 14.8732 9.15791 14.6166 8.97064C14.3599 8.78337 14.1694 8.51946 14.0724 8.21693L12.6004 3.60593C12.5598 3.47973 12.4803 3.36966 12.3732 3.29157C12.2661 3.21348 12.1369 3.1714 12.0044 3.1714C11.8718 3.1714 11.7427 3.21348 11.6356 3.29157C11.5285 3.36966 11.4489 3.47973 11.4084 3.60593L9.92538 8.21793C9.82853 8.51997 9.63843 8.78354 9.3824 8.97076C9.12636 9.15798 8.81757 9.25922 8.50038 9.25993H3.63038Z" fill="#374957"/>
</g>
<defs>
<clipPath id="clip0_398_7891">
<rect width="24" height="24" fill="white"/>
</clipPath>
</defs>
</svg>
