<svg width="24" height="24" viewBox="0 0 24 24" fill="none" xmlns="http://www.w3.org/2000/svg">
<g clip-path="url(#clip0_398_7895)">
<path d="M12 0C9.62663 0 7.30655 0.703788 5.33316 2.02236C3.35977 3.34094 1.8217 5.21509 0.913451 7.4078C0.00519943 9.60051 -0.232441 12.0133 0.230582 14.3411C0.693605 16.6689 1.83649 18.8071 3.51472 20.4853C5.19295 22.1635 7.33115 23.3064 9.65892 23.7694C11.9867 24.2324 14.3995 23.9948 16.5922 23.0866C18.7849 22.1783 20.6591 20.6402 21.9776 18.6668C23.2962 16.6935 24 14.3734 24 12C23.9966 8.81846 22.7312 5.76821 20.4815 3.51852C18.2318 1.26883 15.1815 0.00344108 12 0V0ZM12 21C10.22 21 8.47992 20.4722 6.99987 19.4832C5.51983 18.4943 4.36628 17.0887 3.68509 15.4442C3.0039 13.7996 2.82567 11.99 3.17294 10.2442C3.5202 8.49836 4.37737 6.89471 5.63604 5.63604C6.89472 4.37737 8.49836 3.5202 10.2442 3.17293C11.99 2.82567 13.7996 3.0039 15.4442 3.68508C17.0887 4.36627 18.4943 5.51983 19.4832 6.99987C20.4722 8.47991 21 10.22 21 12C20.9974 14.3861 20.0483 16.6738 18.361 18.361C16.6738 20.0483 14.3861 20.9974 12 21Z" fill="#374957"/>
<path d="M12.0049 19C12.8333 19 13.5049 18.3284 13.5049 17.5C13.5049 16.6716 12.8333 16 12.0049 16C11.1765 16 10.5049 16.6716 10.5049 17.5C10.5049 18.3284 11.1765 19 12.0049 19Z" fill="#374957"/>
<path d="M12.7568 4.98662C12.1451 4.87696 11.5169 4.90277 10.9162 5.06223C10.3156 5.2217 9.75726 5.51094 9.28054 5.90958C8.80381 6.30822 8.42031 6.80655 8.15705 7.36947C7.89378 7.93238 7.75717 8.54618 7.75684 9.16762C7.75684 9.56544 7.91487 9.94697 8.19617 10.2283C8.47748 10.5096 8.85901 10.6676 9.25683 10.6676C9.65466 10.6676 10.0362 10.5096 10.3175 10.2283C10.5988 9.94697 10.7568 9.56544 10.7568 9.16762C10.7577 8.94755 10.8168 8.73164 10.9281 8.54177C11.0394 8.35191 11.1988 8.19484 11.3904 8.0865C11.5819 7.97815 11.7987 7.92238 12.0188 7.92485C12.2388 7.92731 12.4543 7.98792 12.6434 8.10052C12.8325 8.21313 12.9884 8.37373 13.0954 8.56604C13.2024 8.75835 13.2566 8.97553 13.2526 9.19556C13.2486 9.41559 13.1865 9.63064 13.0725 9.81891C12.9586 10.0072 12.7969 10.162 12.6038 10.2676C11.9851 10.5268 11.4592 10.9671 11.0955 11.5308C10.7317 12.0945 10.5471 12.755 10.5658 13.4256C10.5658 13.8234 10.7239 14.205 11.0052 14.4863C11.2865 14.7676 11.668 14.9256 12.0658 14.9256C12.4637 14.9256 12.8452 14.7676 13.1265 14.4863C13.4078 14.205 13.5658 13.8234 13.5658 13.4256C13.5649 13.3526 13.5703 13.2797 13.5818 13.2076C13.7219 13.0798 13.8807 12.9742 14.0528 12.8946C14.821 12.4712 15.4393 11.8204 15.8228 11.0315C16.2062 10.2426 16.3361 9.35435 16.1945 8.4887C16.0529 7.62306 15.6469 6.82246 15.0321 6.19684C14.4173 5.57122 13.6239 5.15126 12.7608 4.99462L12.7568 4.98662Z" fill="#374957"/>
</g>
<defs>
<clipPath id="clip0_398_7895">
<rect width="24" height="24" fill="white"/>
</clipPath>
</defs>
</svg>
