<svg width="24" height="24" viewBox="0 0 24 24" fill="none" xmlns="http://www.w3.org/2000/svg">
<g clip-path="url(#clip0_398_7926)">
<path d="M22.824 1.176C22.0597 0.44565 21.0432 0.0380859 19.986 0.0380859C18.9288 0.0380859 17.9124 0.44565 17.148 1.176L1.61101 16.713C1.09893 17.2223 0.69288 17.828 0.416359 18.4952C0.139839 19.1624 -0.00167058 19.8778 1.48806e-05 20.6V22.5C1.48806e-05 22.8978 0.15805 23.2794 0.439355 23.5607C0.720659 23.842 1.10219 24 1.50001 24H3.40001C4.12257 24.0019 4.83833 23.8606 5.50588 23.584C6.17343 23.3075 6.7795 22.9013 7.28901 22.389L22.824 6.852C23.5756 6.09874 23.9977 5.07809 23.9977 4.014C23.9977 2.9499 23.5756 1.92926 22.824 1.176ZM5.16601 20.268C4.6964 20.7346 4.062 20.9975 3.40001 21H3.00001V20.6C3.00207 19.9373 3.26505 19.3022 3.73201 18.832L15.3 7.267L16.733 8.7L5.16601 20.268ZM20.7 4.731L18.854 6.58L17.42 5.146L19.27 3.3C19.463 3.11558 19.7196 3.01266 19.9865 3.01266C20.2534 3.01266 20.5101 3.11558 20.703 3.3C20.8916 3.49056 20.9972 3.748 20.9966 4.01612C20.996 4.28423 20.8894 4.54123 20.7 4.731Z" fill="#374957"/>
</g>
<defs>
<clipPath id="clip0_398_7926">
<rect width="24" height="24" fill="white"/>
</clipPath>
</defs>
</svg>
