<svg width="24" height="24" viewBox="0 0 24 24" fill="none" xmlns="http://www.w3.org/2000/svg">
<g clip-path="url(#clip0_398_7922)">
<path d="M18.5 2.00059H16.475C15.783 1.21305 14.8942 0.623513 13.8995 0.292305C12.9048 -0.038904 11.84 -0.0998895 10.814 0.115589C9.56347 0.370635 8.43301 1.03365 7.6 2.00059H5C2.1 2.00059 0 4.31359 0 7.50059V18.5006C0.00185226 19.9587 0.58191 21.3566 1.61296 22.3876C2.64401 23.4187 4.04188 23.9987 5.5 24.0006H18.5C19.9581 23.9987 21.356 23.4187 22.387 22.3876C23.4181 21.3566 23.9981 19.9587 24 18.5006V7.50059C23.9981 6.04247 23.4181 4.6446 22.387 3.61355C21.356 2.5825 19.9581 2.00244 18.5 2.00059ZM21 18.5006C21 19.1636 20.7366 19.7995 20.2678 20.2684C19.7989 20.7372 19.163 21.0006 18.5 21.0006H5.5C4.83696 21.0006 4.20107 20.7372 3.73223 20.2684C3.26339 19.7995 3 19.1636 3 18.5006V7.50059C3 7.08359 3.1 5.00059 5 5.00059H6.135C6.0563 5.40053 6.01545 5.80699 6.013 6.21459C6.01423 6.93759 6.29668 7.63175 6.80058 8.15022C7.30449 8.66868 7.99033 8.97078 8.713 8.99259L11.249 4.66959C11.4697 4.33807 11.813 4.10778 12.2034 4.02939C12.5939 3.951 12.9995 4.03093 13.331 4.25159C13.6625 4.47225 13.8928 4.81557 13.9712 5.20602C14.0496 5.59647 13.9697 6.00207 13.749 6.33359L12.316 9.00059H15.228C15.6164 9.01526 16.0033 8.94592 16.3624 8.79731C16.7215 8.64869 17.0443 8.42431 17.3087 8.13948C17.5731 7.85466 17.7729 7.5161 17.8945 7.14696C18.016 6.77782 18.0565 6.38679 18.013 6.00059C18.013 6.01659 17.976 5.33759 17.921 5.00059H18.5C19.163 5.00059 19.7989 5.26398 20.2678 5.73282C20.7366 6.20166 21 6.83755 21 7.50059V18.5006Z" fill="#374957"/>
</g>
<defs>
<clipPath id="clip0_398_7922">
<rect width="24" height="24" fill="white"/>
</clipPath>
</defs>
</svg>
