<svg width="24" height="24" viewBox="0 0 24 24" fill="none" xmlns="http://www.w3.org/2000/svg">
<g clip-path="url(#clip0_398_7924)">
<path d="M13.5005 11.69C13.755 11.9787 13.9209 12.3347 13.9782 12.7153C14.0355 13.0959 13.9817 13.4849 13.8233 13.8358C13.665 14.1866 13.4087 14.4842 13.0854 14.693C12.7621 14.9018 12.3853 15.0129 12.0005 15.0129C11.6156 15.0129 11.2388 14.9018 10.9155 14.693C10.5922 14.4842 10.3359 14.1866 10.1776 13.8358C10.0192 13.4849 9.96545 13.0959 10.0227 12.7153C10.08 12.3347 10.2459 11.9787 10.5005 11.69V7H13.5005V11.69ZM20.4005 5.911C21.7546 7.51265 22.6227 9.46807 22.9023 11.5468C23.1819 13.6254 22.8614 15.7407 21.9785 17.6433C21.0957 19.5458 19.6873 21.1563 17.9194 22.2849C16.1515 23.4135 14.0979 24.0131 12.0005 24.0131C9.90305 24.0131 7.84937 23.4135 6.08149 22.2849C4.31361 21.1563 2.90524 19.5458 2.0224 17.6433C1.13955 15.7407 0.819033 13.6254 1.09863 11.5468C1.37822 9.46807 2.24627 7.51265 3.60045 5.911L2.94045 5.179L2.18445 5.936L0.0644531 3.814L3.81445 0.064L5.93645 2.186L5.06745 3.054L5.82945 3.9C7.22755 2.95195 8.82641 2.34095 10.5005 2.115V0H13.5005V2.115C15.1745 2.34095 16.7734 2.95195 18.1715 3.9L18.9335 3.054L18.0645 2.186L20.1865 0.064L23.9365 3.814L21.8145 5.936L21.0585 5.179L20.4005 5.911ZM20.0005 13C20.0005 11.4178 19.5313 9.87103 18.6522 8.55544C17.7732 7.23985 16.5237 6.21447 15.0619 5.60896C13.6001 5.00346 11.9916 4.84504 10.4397 5.15372C8.88788 5.4624 7.46242 6.22433 6.3436 7.34315C5.22478 8.46197 4.46285 9.88743 4.15417 11.4393C3.84549 12.9911 4.00392 14.5997 4.60942 16.0615C5.21492 17.5233 6.2403 18.7727 7.55589 19.6518C8.87148 20.5308 10.4182 21 12.0005 21C14.1215 20.9976 16.1549 20.154 17.6547 18.6542C19.1545 17.1544 19.9981 15.121 20.0005 13Z" fill="#374957"/>
</g>
<defs>
<clipPath id="clip0_398_7924">
<rect width="24" height="24" fill="white"/>
</clipPath>
</defs>
</svg>
