<svg width="24" height="24" viewBox="0 0 24 24" fill="none" xmlns="http://www.w3.org/2000/svg">
<g clip-path="url(#clip0_398_7930)">
<path d="M11.4527 14.0192C7.19099 14.4044 3.94415 18.0055 4.00073 22.2842V22.5012C4.00073 23.3296 4.67231 24.0012 5.50073 24.0012C6.32915 24.0012 7.00073 23.3296 7.00073 22.5012V22.2242C6.95563 19.5971 8.89438 17.3568 11.5007 17.0242C14.252 16.7514 16.7035 18.7605 16.9763 21.5118C16.9924 21.6744 17.0006 21.8377 17.0007 22.0012V22.5012C17.0007 23.3296 17.6723 24.0012 18.5007 24.0012C19.3291 24.0012 20.0007 23.3296 20.0007 22.5012V22.0011C19.9958 17.5779 16.4061 13.9961 11.9829 14.001C11.806 14.0012 11.6292 14.0073 11.4527 14.0192Z" fill="#374957"/>
<path d="M12.001 12C15.3147 12 18.001 9.31369 18.001 6C18.001 2.68631 15.3147 0 12.001 0C8.68729 0 6.00098 2.68631 6.00098 6C6.00426 9.31233 8.68865 11.9967 12.001 12ZM12.001 3C13.6578 3 15.001 4.34316 15.001 6C15.001 7.65684 13.6578 9 12.001 9C10.3441 9 9.00098 7.65684 9.00098 6C9.00098 4.34316 10.3441 3 12.001 3Z" fill="#374957"/>
</g>
<defs>
<clipPath id="clip0_398_7930">
<rect width="24" height="24" fill="white"/>
</clipPath>
</defs>
</svg>
