<svg xmlns="http://www.w3.org/2000/svg" version="1.1" xmlns:xlink="http://www.w3.org/1999/xlink" xmlns:svgjs="http://svgjs.dev/svgjs" width="2000" height="570" viewBox="0 0 2000 570"><g transform="matrix(1,0,0,1,-1.2121212121212466,-0.2992933887759932)"><svg viewBox="0 0 396 113" data-background-color="#ffffff" preserveAspectRatio="xMidYMid meet" height="570" width="2000" xmlns="http://www.w3.org/2000/svg" xmlns:xlink="http://www.w3.org/1999/xlink"><g id="tight-bounds" transform="matrix(1,0,0,1,0.2400000000000091,0.059333601634534716)"><svg viewBox="0 0 395.52 112.88133279673096" height="112.88133279673096" width="395.52"><g><svg viewBox="0 0 692.5738605206625 197.66044810818576" height="112.88133279673096" width="395.52"><g><rect width="8.439040805580635" height="143.99365289884184" x="417.6117298575409" y="26.83339760467196" fill="#000000" opacity="1" stroke-width="0" stroke="transparent" fill-opacity="1" class="rect-qz-0" data-fill-palette-color="primary" rx="1%" id="qz-0" data-palette-color="#0080ff"></rect></g><g transform="matrix(1,0,0,1,0,27.19159077108698)"><svg viewBox="0 0 395.52 143.2772665660118" height="143.2772665660118" width="395.52"><g id="textblocktransform"><svg viewBox="0 0 395.52 143.2772665660118" height="143.2772665660118" width="395.52" id="textblock"><g><svg viewBox="0 0 395.52 93.57888924558587" height="93.57888924558587" width="395.52"><g transform="matrix(1,0,0,1,0,0)"><svg width="395.52" viewBox="0.3 -36.4 155.73999999999998 36.85" height="93.57888924558587" data-palette-color="#0080ff"><path d="M27.2-31.95Q27.7-33.3 27.7-34.3 27.7-35.3 27.2-35.9L27.2-35.9Q28.35-36.4 29.38-36.4 30.4-36.4 31.1-35.75 31.8-35.1 31.8-34.05 31.8-33 31.4-32L31.4-32 19.75-2.55Q19.05-0.8 18.4-0.18 17.75 0.45 16.48 0.45 15.2 0.45 14.53-0.2 13.85-0.85 13.25-2.55L13.25-2.55 2.15-32.05Q1.4-34.1 0.3-34.75L0.3-34.75Q1.55-36.25 3.25-36.25L3.25-36.25Q4.3-36.25 5.03-35.5 5.75-34.75 6.35-33.15L6.35-33.15 16.75-3.95 27.2-31.95ZM39.35-6.4L39.35-6.4Q39.35-2.8 43.27-2.8 47.2-2.8 49.75-6.25L49.75-6.25 49.75-12.2Q44.45-11.9 41.9-10.33 39.35-8.75 39.35-6.4ZM53.9-17.8L53.9-17.8 53.9-4.5Q53.9-1.85 56.35-1.5L56.35-1.5Q55.4 0.45 53.2 0.45L53.2 0.45Q50.05 0.45 49.75-3.6L49.75-3.6Q46.85 0.45 41.95 0.45L41.95 0.45Q38.85 0.45 36.85-1.25 34.85-2.95 34.85-5.95L34.85-5.95Q34.85-9.65 38.57-11.93 42.3-14.2 49.75-14.4L49.75-14.4 49.75-17.4Q49.75-20.5 48.65-21.98 47.55-23.45 45.17-23.45 42.8-23.45 41.6-22.48 40.4-21.5 40.4-20.28 40.4-19.05 41.1-18.3L41.1-18.3Q40.05-17.5 38.77-17.5 37.5-17.5 36.7-18.2 35.9-18.9 35.9-20.2L35.9-20.2Q35.9-22.55 38.6-24.2 41.3-25.85 45.25-25.85 49.2-25.85 51.55-23.73 53.9-21.6 53.9-17.8ZM83.8-17.25L83.8-17.25 83.8-3.1Q83.8-1.7 85.09-1.15L85.09-1.15Q84.05 0.45 82.45 0.45L82.45 0.45Q79.7 0.45 79.7-3.05L79.7-3.05 79.7-16.95Q79.7-22.2 75.09-22.2L75.09-22.2Q72.59-22.2 70.34-20.2 68.09-18.2 67.25-14.85L67.25-14.85 67.25-3.1Q67.25-1.65 68.5-1.15L68.5-1.15Q67.45 0.45 65.9 0.45L65.9 0.45Q63.1 0.45 63.1-3.05L63.1-3.05 63.1-22.25Q63.1-23.7 61.85-24.25L61.85-24.25Q62.8-25.85 64.45-25.85L64.45-25.85Q67.25-25.85 67.25-22.35L67.25-22.35 67.25-19.75Q68.55-22.45 70.95-24.15 73.34-25.85 76.57-25.85 79.8-25.85 81.8-23.68 83.8-21.5 83.8-17.25ZM96.94-22.35L96.94-22.35 96.94-20.5Q99.04-25.85 103.89-25.85L103.89-25.85Q106.24-25.85 107.54-24.65 108.84-23.45 108.84-21.88 108.84-20.3 108.04-19.48 107.24-18.65 106.39-18.65 105.54-18.65 104.84-18.85L104.84-18.85Q104.94-19.35 104.94-20.15L104.94-20.15Q104.94-22.65 102.44-22.65L102.44-22.65Q100.79-22.65 99.19-21 97.59-19.35 96.94-15.95L96.94-15.95 96.94-3.1Q96.94-1.65 98.19-1.15L98.19-1.15Q97.14 0.45 95.59 0.45L95.59 0.45Q92.79 0.45 92.79-3.05L92.79-3.05 92.79-22.25Q92.79-23.7 91.54-24.25L91.54-24.25Q92.49-25.85 94.14-25.85L94.14-25.85Q96.94-25.85 96.94-22.35ZM116.19-14.65L125.54-15.4Q127.59-15.55 127.59-17.78 127.59-20 126.32-21.48 125.04-22.95 122.74-22.95 120.44-22.95 118.54-20.75 116.64-18.55 116.19-14.65L116.19-14.65ZM116.09-12.5Q116.09-7.6 118.22-5.25 120.34-2.9 124.29-2.9 128.24-2.9 130.84-5.5L130.84-5.5Q131.59-5.1 131.59-4.15L131.59-4.15Q131.59-2.5 129.19-1.03 126.79 0.45 123.49 0.45L123.49 0.45Q118.34 0.45 115.04-2.8 111.74-6.05 111.74-11.93 111.74-17.8 115.32-21.83 118.89-25.85 123.54-25.85L123.54-25.85Q127.24-25.85 129.56-23.3 131.89-20.75 131.89-17.5L131.89-17.5Q131.89-15.15 130.62-14.03 129.34-12.9 126.49-12.8L126.49-12.8 116.09-12.5ZM154.81-18.98Q153.99-18.3 152.84-18.3 151.69-18.3 150.89-18.9L150.89-18.9Q151.19-19.4 151.19-20.35 151.19-21.3 150.04-22.2 148.89-23.1 146.59-23.1 144.29-23.1 142.94-22.08 141.59-21.05 141.59-19.65 141.59-18.25 143.09-17.13 144.59-16 146.69-15.08 148.79-14.15 150.91-13.1 153.04-12.05 154.54-10.43 156.04-8.8 156.04-6.8L156.04-6.8Q156.04-3.85 153.24-1.7 150.44 0.45 146.14 0.45 141.84 0.45 139.14-1.2 136.44-2.85 136.44-5.45L136.44-5.45Q136.44-7 137.31-7.88 138.19-8.75 139.41-8.75 140.64-8.75 141.34-7.9L141.34-7.9Q140.64-6.95 140.64-5.6 140.64-4.25 142.01-3.28 143.39-2.3 146.01-2.3 148.64-2.3 150.21-3.43 151.79-4.55 151.79-6.18 151.79-7.8 150.31-9 148.84-10.2 146.74-11.08 144.64-11.95 142.51-12.93 140.39-13.9 138.91-15.4 137.44-16.9 137.44-18.8L137.44-18.8Q137.44-21.8 140.04-23.83 142.64-25.85 146.41-25.85 150.19-25.85 152.89-24.48 155.59-23.1 155.59-20.85L155.59-20.85Q155.64-19.65 154.81-18.98Z" opacity="1" transform="matrix(1,0,0,1,0,0)" fill="#000000" class="wordmark-text-0" data-fill-palette-color="primary" id="text-0"></path></svg></g></svg></g><g transform="matrix(1,0,0,1,0,115.6706191031268)"><svg viewBox="0 0 395.52 27.606647462885" height="27.606647462885" width="395.52"><g transform="matrix(1,0,0,1,0,0)"><svg width="395.52" viewBox="1.34 -37.7 550.85 38.46" height="27.606647462885" data-palette-color="#0080ff"><path d="M37.55-17.36L37.55-17.36Q37.55-14.87 36.9-12.56 36.25-10.25 35.08-8.24 33.91-6.23 32.25-4.57 30.59-2.91 28.59-1.72 26.59-0.54 24.27 0.11 21.95 0.76 19.46 0.76L19.46 0.76Q16.97 0.76 14.66 0.11 12.35-0.54 10.34-1.72 8.33-2.91 6.67-4.57 5-6.23 3.82-8.24 2.64-10.25 1.99-12.56 1.34-14.87 1.34-17.36L1.34-17.36Q1.34-19.85 1.99-22.17 2.64-24.49 3.82-26.49 5-28.49 6.67-30.15 8.33-31.81 10.34-32.98 12.35-34.16 14.66-34.8 16.97-35.45 19.46-35.45L19.46-35.45Q21.95-35.45 24.27-34.8 26.59-34.16 28.59-32.98 30.59-31.81 32.25-30.15 33.91-28.49 35.08-26.49 36.25-24.49 36.9-22.17 37.55-19.85 37.55-17.36ZM30.59-17.36L30.59-17.36Q30.59-19.65 29.71-21.69 28.83-23.73 27.33-25.23 25.83-26.73 23.79-27.61 21.75-28.49 19.46-28.49L19.46-28.49Q17.14-28.49 15.11-27.61 13.09-26.73 11.57-25.23 10.06-23.73 9.18-21.69 8.3-19.65 8.3-17.36L8.3-17.36Q8.3-15.06 9.18-13.05 10.06-11.04 11.57-9.52 13.09-8.01 15.11-7.13 17.14-6.25 19.46-6.25L19.46-6.25Q21.75-6.25 23.79-7.13 25.83-8.01 27.33-9.52 28.83-11.04 29.71-13.05 30.59-15.06 30.59-17.36ZM48.09-14.94L48.09 0 41.43 0 41.43-26.15 43.04-26.15 45.24-23.61Q46.85-25.07 48.89-25.87 50.93-26.66 53.15-26.66L53.15-26.66Q55.54-26.66 57.66-25.74 59.79-24.83 61.37-23.23 62.96-21.63 63.88-19.49 64.79-17.36 64.79-14.94L64.79-14.94 64.79 0 58.13 0 58.13-14.94Q58.13-15.97 57.74-16.88 57.35-17.8 56.66-18.48 55.98-19.17 55.08-19.56 54.17-19.95 53.15-19.95L53.15-19.95Q52.1-19.95 51.17-19.56 50.24-19.17 49.56-18.48 48.87-17.8 48.48-16.88 48.09-15.97 48.09-14.94L48.09-14.94ZM76.24-36.55L76.24 0 69.53 0 69.53-36.55 76.24-36.55ZM89.18-33.25L89.18-33.25Q89.18-32.32 88.82-31.52 88.47-30.71 87.86-30.11 87.25-29.52 86.43-29.16 85.61-28.81 84.68-28.81L84.68-28.81Q83.76-28.81 82.94-29.16 82.12-29.52 81.52-30.11 80.93-30.71 80.57-31.52 80.22-32.32 80.22-33.25L80.22-33.25Q80.22-34.16 80.57-34.97 80.93-35.79 81.52-36.39 82.12-36.99 82.94-37.34 83.76-37.7 84.68-37.7L84.68-37.7Q85.61-37.7 86.43-37.34 87.25-36.99 87.86-36.39 88.47-35.79 88.82-34.97 89.18-34.16 89.18-33.25ZM88.03-26.15L88.03 0 81.32 0 81.32-26.15 88.03-26.15ZM99.77-14.94L99.77 0 93.11 0 93.11-26.15 94.72-26.15 96.91-23.61Q98.53-25.07 100.56-25.87 102.6-26.66 104.82-26.66L104.82-26.66Q107.22-26.66 109.34-25.74 111.46-24.83 113.05-23.23 114.64-21.63 115.55-19.49 116.47-17.36 116.47-14.94L116.47-14.94 116.47 0 109.8 0 109.8-14.94Q109.8-15.97 109.41-16.88 109.02-17.8 108.34-18.48 107.66-19.17 106.75-19.56 105.85-19.95 104.82-19.95L104.82-19.95Q103.77-19.95 102.85-19.56 101.92-19.17 101.24-18.48 100.55-17.8 100.16-16.88 99.77-15.97 99.77-14.94L99.77-14.94ZM144.1-21.46L131.6-6.4Q131.99-6.27 132.38-6.24 132.78-6.2 133.17-6.2L133.17-6.2Q134.14-6.2 135.05-6.47 135.95-6.74 136.74-7.24 137.54-7.74 138.16-8.46 138.78-9.18 139.17-10.06L139.17-10.06 144.05-5.15Q143.13-3.83 141.92-2.78 140.71-1.73 139.31-1 137.9-0.27 136.35 0.11 134.8 0.49 133.17 0.49L133.17 0.49Q130.41 0.49 127.98-0.54 125.55-1.56 123.73-3.39 121.91-5.22 120.86-7.75 119.81-10.28 119.81-13.31L119.81-13.31Q119.81-16.41 120.86-18.97 121.91-21.53 123.73-23.34 125.55-25.15 127.98-26.15 130.41-27.15 133.17-27.15L133.17-27.15Q134.8-27.15 136.36-26.76 137.93-26.37 139.33-25.63 140.73-24.9 141.96-23.84 143.18-22.78 144.1-21.46L144.1-21.46ZM127.26-9.84L135.02-20.14Q134.56-20.31 134.11-20.36 133.65-20.41 133.17-20.41L133.17-20.41Q131.8-20.41 130.59-19.91 129.38-19.41 128.49-18.48 127.6-17.55 127.09-16.25 126.57-14.94 126.57-13.31L126.57-13.31Q126.57-12.94 126.61-12.48 126.65-12.01 126.73-11.54 126.82-11.06 126.94-10.62 127.06-10.18 127.26-9.84L127.26-9.84ZM184.33-21.46L171.83-6.4Q172.22-6.27 172.61-6.24 173-6.2 173.4-6.2L173.4-6.2Q174.37-6.2 175.28-6.47 176.18-6.74 176.97-7.24 177.77-7.74 178.39-8.46 179.01-9.18 179.4-10.06L179.4-10.06 184.28-5.15Q183.36-3.83 182.15-2.78 180.94-1.73 179.54-1 178.13-0.27 176.58 0.11 175.03 0.49 173.4 0.49L173.4 0.49Q170.64 0.49 168.21-0.54 165.78-1.56 163.96-3.39 162.14-5.22 161.09-7.75 160.04-10.28 160.04-13.31L160.04-13.31Q160.04-16.41 161.09-18.97 162.14-21.53 163.96-23.34 165.78-25.15 168.21-26.15 170.64-27.15 173.4-27.15L173.4-27.15Q175.03-27.15 176.59-26.76 178.16-26.37 179.56-25.63 180.96-24.9 182.18-23.84 183.41-22.78 184.33-21.46L184.33-21.46ZM167.49-9.84L175.25-20.14Q174.79-20.31 174.34-20.36 173.88-20.41 173.4-20.41L173.4-20.41Q172.03-20.41 170.82-19.91 169.61-19.41 168.72-18.48 167.83-17.55 167.32-16.25 166.8-14.94 166.8-13.31L166.8-13.31Q166.8-12.94 166.84-12.48 166.88-12.01 166.96-11.54 167.05-11.06 167.17-10.62 167.29-10.18 167.49-9.84L167.49-9.84ZM212.75-36.55L212.75 0 211.14 0 208.55-3.59Q207.6-2.73 206.54-1.99 205.47-1.25 204.3-0.7 203.13-0.15 201.9 0.17 200.66 0.49 199.39 0.49L199.39 0.49Q196.64 0.49 194.21-0.55 191.78-1.59 189.96-3.43 188.14-5.27 187.09-7.8 186.04-10.33 186.04-13.31L186.04-13.31Q186.04-16.26 187.09-18.8 188.14-21.34 189.96-23.19 191.78-25.05 194.21-26.1 196.64-27.15 199.39-27.15L199.39-27.15Q200.27-27.15 201.21-27 202.15-26.86 203.04-26.53 203.94-26.2 204.72-25.66 205.5-25.12 206.03-24.34L206.03-24.34 206.03-36.55 212.75-36.55ZM206.03-13.31L206.03-13.31Q206.03-14.67 205.51-15.95 204.98-17.24 204.08-18.23 203.18-19.21 201.97-19.81 200.76-20.41 199.39-20.41L199.39-20.41Q198.03-20.41 196.82-19.92 195.61-19.43 194.72-18.52 193.83-17.6 193.31-16.28 192.8-14.97 192.8-13.31L192.8-13.31Q192.8-11.87 193.31-10.57 193.83-9.28 194.72-8.3 195.61-7.32 196.82-6.76 198.03-6.2 199.39-6.2L199.39-6.2Q200.76-6.2 201.97-6.8 203.18-7.4 204.08-8.39 204.98-9.38 205.51-10.66 206.03-11.94 206.03-13.31ZM239.24 0L237.04-3.05Q236.23-2.32 235.32-1.67 234.4-1.03 233.4-0.55 232.4-0.07 231.34 0.21 230.28 0.49 229.18 0.49L229.18 0.49Q226.76 0.49 224.64-0.37 222.51-1.22 220.91-2.8 219.31-4.37 218.4-6.63 217.48-8.89 217.48-11.69L217.48-11.69 217.48-26.15 224.12-26.15 224.12-11.69Q224.12-10.38 224.53-9.34 224.93-8.3 225.61-7.59 226.3-6.88 227.21-6.52 228.13-6.15 229.18-6.15L229.18-6.15Q230.2-6.15 231.12-6.63 232.03-7.1 232.72-7.89 233.4-8.67 233.79-9.66 234.18-10.64 234.18-11.69L234.18-11.69 234.18-26.15 240.85-26.15 240.85 0 239.24 0ZM268.77-20.95L268.77-20.95 263.89-16.04Q263.52-17.07 262.89-17.88 262.26-18.7 261.46-19.26 260.67-19.82 259.74-20.12 258.81-20.41 257.84-20.41L257.84-20.41Q256.47-20.41 255.26-19.85 254.05-19.29 253.16-18.27 252.27-17.26 251.76-15.87 251.24-14.48 251.24-12.79L251.24-12.79Q251.24-11.43 251.76-10.23 252.27-9.03 253.16-8.13 254.05-7.23 255.26-6.71 256.47-6.2 257.84-6.2L257.84-6.2Q258.81-6.2 259.72-6.47 260.62-6.74 261.41-7.24 262.21-7.74 262.83-8.46 263.45-9.18 263.84-10.06L263.84-10.06 268.73-5.15Q267.8-3.83 266.59-2.78 265.38-1.73 263.98-1 262.57-0.27 261.02 0.11 259.47 0.49 257.84 0.49L257.84 0.49Q255.08 0.49 252.65-0.55 250.22-1.59 248.4-3.39 246.58-5.2 245.53-7.62 244.48-10.03 244.48-12.79L244.48-12.79Q244.48-15.8 245.53-18.41 246.58-21.02 248.4-22.96 250.22-24.9 252.65-26.03 255.08-27.15 257.84-27.15L257.84-27.15Q259.47-27.15 261.05-26.73 262.62-26.32 264.05-25.52 265.48-24.73 266.69-23.58 267.89-22.44 268.77-20.95ZM296.95-26.1L296.95 0 295.33 0 292.75-3.59Q291.79-2.73 290.73-1.99 289.67-1.25 288.5-0.7 287.33-0.15 286.09 0.17 284.86 0.49 283.59 0.49L283.59 0.49Q280.83 0.49 278.4-0.44 275.97-1.37 274.15-3.14 272.34-4.91 271.29-7.47 270.24-10.03 270.24-13.31L270.24-13.31Q270.24-16.36 271.29-18.91 272.34-21.46 274.15-23.29 275.97-25.12 278.4-26.14 280.83-27.15 283.59-27.15L283.59-27.15Q284.86-27.15 286.11-26.83 287.35-26.51 288.52-25.95 289.69-25.39 290.76-24.63 291.82-23.88 292.75-23L292.75-23 295.33-26.1 296.95-26.1ZM290.23-13.31L290.23-13.31Q290.23-14.67 289.71-15.95 289.18-17.24 288.28-18.23 287.37-19.21 286.17-19.81 284.96-20.41 283.59-20.41L283.59-20.41Q282.22-20.41 281.01-19.95 279.81-19.48 278.92-18.58 278.02-17.68 277.51-16.35 277-15.01 277-13.31L277-13.31Q277-11.6 277.51-10.27 278.02-8.94 278.92-8.03 279.81-7.13 281.01-6.67 282.22-6.2 283.59-6.2L283.59-6.2Q284.96-6.2 286.17-6.8 287.37-7.4 288.28-8.39 289.18-9.38 289.71-10.66 290.23-11.94 290.23-13.31ZM320.18 0L315.13 0Q312.71 0 310.59-0.92 308.47-1.83 306.87-3.43 305.27-5.03 304.35-7.15 303.44-9.28 303.44-11.69L303.44-11.69 303.44-19.46 300.19-19.46 300.19-26.1 303.44-26.1 303.44-36.55 310.08-36.55 310.08-26.1 320.18-26.1 320.18-19.46 310.08-19.46 310.08-11.69Q310.08-10.64 310.47-9.73 310.86-8.81 311.54-8.13 312.23-7.45 313.15-7.04 314.08-6.64 315.13-6.64L315.13-6.64 320.18-6.64 320.18 0ZM331.78-33.25L331.78-33.25Q331.78-32.32 331.43-31.52 331.07-30.71 330.46-30.11 329.85-29.52 329.03-29.16 328.21-28.81 327.29-28.81L327.29-28.81Q326.36-28.81 325.54-29.16 324.72-29.52 324.13-30.11 323.53-30.71 323.17-31.52 322.82-32.32 322.82-33.25L322.82-33.25Q322.82-34.16 323.17-34.97 323.53-35.79 324.13-36.39 324.72-36.99 325.54-37.34 326.36-37.7 327.29-37.7L327.29-37.7Q328.21-37.7 329.03-37.34 329.85-36.99 330.46-36.39 331.07-35.79 331.43-34.97 331.78-34.16 331.78-33.25ZM330.63-26.15L330.63 0 323.92 0 323.92-26.15 330.63-26.15ZM360.98-13.31L360.98-13.31Q360.98-10.38 359.93-7.85 358.88-5.32 357.07-3.48 355.26-1.64 352.83-0.57 350.4 0.49 347.62 0.49L347.62 0.49Q344.86 0.49 342.43-0.57 340-1.64 338.19-3.48 336.37-5.32 335.32-7.85 334.27-10.38 334.27-13.31L334.27-13.31Q334.27-16.28 335.32-18.82 336.37-21.36 338.19-23.21 340-25.05 342.43-26.1 344.86-27.15 347.62-27.15L347.62-27.15Q350.4-27.15 352.83-26.16 355.26-25.17 357.07-23.35 358.88-21.53 359.93-18.98 360.98-16.43 360.98-13.31ZM354.26-13.31L354.26-13.31Q354.26-14.92 353.74-16.22 353.21-17.53 352.31-18.47 351.41-19.41 350.2-19.91 348.99-20.41 347.62-20.41L347.62-20.41Q346.25-20.41 345.05-19.91 343.84-19.41 342.95-18.47 342.05-17.53 341.54-16.22 341.03-14.92 341.03-13.31L341.03-13.31Q341.03-11.79 341.54-10.5 342.05-9.2 342.95-8.25 343.84-7.3 345.05-6.75 346.25-6.2 347.62-6.2L347.62-6.2Q348.99-6.2 350.2-6.71 351.41-7.23 352.31-8.15 353.21-9.08 353.74-10.4 354.26-11.72 354.26-13.31ZM371.32-14.94L371.32 0 364.66 0 364.66-26.15 366.27-26.15 368.47-23.61Q370.08-25.07 372.12-25.87 374.16-26.66 376.38-26.66L376.38-26.66Q378.77-26.66 380.9-25.74 383.02-24.83 384.61-23.23 386.19-21.63 387.11-19.49 388.02-17.36 388.02-14.94L388.02-14.94 388.02 0 381.36 0 381.36-14.94Q381.36-15.97 380.97-16.88 380.58-17.8 379.89-18.48 379.21-19.17 378.31-19.56 377.4-19.95 376.38-19.95L376.38-19.95Q375.33-19.95 374.4-19.56 373.47-19.17 372.79-18.48 372.11-17.8 371.72-16.88 371.32-15.97 371.32-14.94L371.32-14.94ZM429.6-20.95L429.6-20.95 424.71-16.04Q424.35-17.07 423.71-17.88 423.08-18.7 422.28-19.26 421.49-19.82 420.56-20.12 419.64-20.41 418.66-20.41L418.66-20.41Q417.29-20.41 416.08-19.85 414.87-19.29 413.98-18.27 413.09-17.26 412.58-15.87 412.07-14.48 412.07-12.79L412.07-12.79Q412.07-11.43 412.58-10.23 413.09-9.03 413.98-8.13 414.87-7.23 416.08-6.71 417.29-6.2 418.66-6.2L418.66-6.2Q419.64-6.2 420.54-6.47 421.44-6.74 422.24-7.24 423.03-7.74 423.65-8.46 424.27-9.18 424.66-10.06L424.66-10.06 429.55-5.15Q428.62-3.83 427.41-2.78 426.2-1.73 424.8-1 423.4-0.27 421.84 0.11 420.29 0.49 418.66 0.49L418.66 0.49Q415.9 0.49 413.47-0.55 411.04-1.59 409.22-3.39 407.4-5.2 406.35-7.62 405.3-10.03 405.3-12.79L405.3-12.79Q405.3-15.8 406.35-18.41 407.4-21.02 409.22-22.96 411.04-24.9 413.47-26.03 415.9-27.15 418.66-27.15L418.66-27.15Q420.29-27.15 421.87-26.73 423.44-26.32 424.87-25.52 426.3-24.73 427.51-23.58 428.72-22.44 429.6-20.95ZM455.35-21.46L442.85-6.4Q443.24-6.27 443.63-6.24 444.02-6.2 444.41-6.2L444.41-6.2Q445.39-6.2 446.29-6.47 447.2-6.74 447.99-7.24 448.78-7.74 449.41-8.46 450.03-9.18 450.42-10.06L450.42-10.06 455.3-5.15Q454.37-3.83 453.17-2.78 451.96-1.73 450.55-1 449.15-0.27 447.6 0.11 446.05 0.49 444.41 0.49L444.41 0.49Q441.65 0.49 439.23-0.54 436.8-1.56 434.98-3.39 433.16-5.22 432.11-7.75 431.06-10.28 431.06-13.31L431.06-13.31Q431.06-16.41 432.11-18.97 433.16-21.53 434.98-23.34 436.8-25.15 439.23-26.15 441.65-27.15 444.41-27.15L444.41-27.15Q446.05-27.15 447.61-26.76 449.17-26.37 450.58-25.63 451.98-24.9 453.2-23.84 454.42-22.78 455.35-21.46L455.35-21.46ZM438.5-9.84L446.27-20.14Q445.8-20.31 445.35-20.36 444.9-20.41 444.41-20.41L444.41-20.41Q443.05-20.41 441.84-19.91 440.63-19.41 439.74-18.48 438.85-17.55 438.33-16.25 437.82-14.94 437.82-13.31L437.82-13.31Q437.82-12.94 437.86-12.48 437.89-12.01 437.98-11.54 438.07-11.06 438.19-10.62 438.31-10.18 438.5-9.84L438.5-9.84ZM465.36-14.94L465.36 0 458.69 0 458.69-26.15 460.3-26.15 462.5-23.61Q464.11-25.07 466.15-25.87 468.19-26.66 470.41-26.66L470.41-26.66Q472.8-26.66 474.93-25.74 477.05-24.83 478.64-23.23 480.23-21.63 481.14-19.49 482.06-17.36 482.06-14.94L482.06-14.94 482.06 0 475.39 0 475.39-14.94Q475.39-15.97 475-16.88 474.61-17.8 473.93-18.48 473.24-19.17 472.34-19.56 471.44-19.95 470.41-19.95L470.41-19.95Q469.36-19.95 468.43-19.56 467.51-19.17 466.82-18.48 466.14-17.8 465.75-16.88 465.36-15.97 465.36-14.94L465.36-14.94ZM504.61 0L499.56 0Q497.14 0 495.02-0.92 492.89-1.83 491.3-3.43 489.7-5.03 488.78-7.15 487.87-9.28 487.87-11.69L487.87-11.69 487.87-19.46 484.62-19.46 484.62-26.1 487.87-26.1 487.87-36.55 494.51-36.55 494.51-26.1 504.61-26.1 504.61-19.46 494.51-19.46 494.51-11.69Q494.51-10.64 494.9-9.73 495.29-8.81 495.97-8.13 496.65-7.45 497.58-7.04 498.51-6.64 499.56-6.64L499.56-6.64 504.61-6.64 504.61 0ZM531.25-21.46L518.75-6.4Q519.14-6.27 519.53-6.24 519.92-6.2 520.31-6.2L520.31-6.2Q521.29-6.2 522.19-6.47 523.09-6.74 523.89-7.24 524.68-7.74 525.3-8.46 525.92-9.18 526.31-10.06L526.31-10.06 531.2-5.15Q530.27-3.83 529.06-2.78 527.85-1.73 526.45-1 525.05-0.27 523.49 0.11 521.94 0.49 520.31 0.49L520.31 0.49Q517.55 0.49 515.12-0.54 512.69-1.56 510.87-3.39 509.05-5.22 508-7.75 506.95-10.28 506.95-13.31L506.95-13.31Q506.95-16.41 508-18.97 509.05-21.53 510.87-23.34 512.69-25.15 515.12-26.15 517.55-27.15 520.31-27.15L520.31-27.15Q521.94-27.15 523.51-26.76 525.07-26.37 526.47-25.63 527.88-24.9 529.1-23.84 530.32-22.78 531.25-21.46L531.25-21.46ZM514.4-9.84L522.16-20.14Q521.7-20.31 521.25-20.36 520.8-20.41 520.31-20.41L520.31-20.41Q518.94-20.41 517.73-19.91 516.52-19.41 515.63-18.48 514.74-17.55 514.23-16.25 513.72-14.94 513.72-13.31L513.72-13.31Q513.72-12.94 513.75-12.48 513.79-12.01 513.88-11.54 513.96-11.06 514.08-10.62 514.21-10.18 514.4-9.84L514.4-9.84ZM541.25-14.4L541.25 0 534.59 0 534.59-26.15 536.2-26.15 538.4-23.05Q540.01-24.51 542.06-25.31 544.11-26.1 546.31-26.1L546.31-26.1 552.19-26.1 552.19-19.46 546.31-19.46Q545.26-19.46 544.33-19.07 543.4-18.68 542.72-17.99 542.03-17.31 541.64-16.38 541.25-15.45 541.25-14.4L541.25-14.4Z" opacity="1" transform="matrix(1,0,0,1,0,0)" fill="#000000" class="slogan-text-1" data-fill-palette-color="secondary" id="text-1"></path></svg></g></svg></g></svg></g></svg></g><g transform="matrix(1,0,0,1,448.1425005206625,0)"><svg viewBox="0 0 244.43136 197.66044810818576" height="197.66044810818576" width="244.43136"><g><svg xmlns="http://www.w3.org/2000/svg" xmlns:xlink="http://www.w3.org/1999/xlink" version="1.1" x="0" y="0" viewBox="4.9995 13.61025 90.00087502340824 72.77958641336241" enable-background="new 0 0 100 100" xml:space="preserve" height="197.66044810818576" width="244.43136" class="icon-icon-0" data-fill-palette-color="accent" id="icon-0"><g fill="#010c80" data-fill-palette-color="accent"><path fill="#000000" d="M71.62 59.237l-7.172 3.973c-4.41 2.441-9.407 3.734-14.45 3.734-5.039 0-10.035-1.292-14.449-3.734l-8.796-4.873c0.11 4.083-0.062 8.421-1.726 11.882-0.459 0.945-1.377 1.8-1.36 2.936 0.02 1.576 1.812 1.842 3.102 1.602 0 0 7.604-1.458 18.126 8.854 1.045 1.025 2.076 1.989 3.492 2.49 2.771 0.983 4.831-0.715 6.735-2.508 1.296-1.219 2.741-2.277 4.193-3.306 3.486-2.463 7.91-5.56 12.351-5.635 0 0 5.729 1.25 2.396-4.062C74.062 70.59 72.535 65.669 71.62 59.237" data-fill-palette-color="accent"></path><polygon fill="#000000" points="14.998,55.277 13.331,65.277 13.331,78.611 19.998,78.611 19.998,65.277 18.331,55.277    18.331,46.051 14.998,44.204  " data-fill-palette-color="accent"></polygon><path fill="#000000" d="M93.499 34.391L61.22 16.512c-6.986-3.869-15.456-3.869-22.438 0L6.498 34.391c-1.998 1.108-1.998 3.996 0 5.106l8.5 4.706v-7.259h38.334v3.333H18.331v5.773l20.45 11.327c6.982 3.867 15.452 3.867 22.438 0l32.279-17.879C95.501 38.387 95.501 35.5 93.499 34.391" data-fill-palette-color="accent"></path></g></svg></g></svg></g></svg></g><defs></defs></svg><rect width="395.52" height="112.88133279673096" fill="none" stroke="none" visibility="hidden"></rect></g></svg></g></svg>